<svg xmlns="http://www.w3.org/2000/svg" xmlns:xlink="http://www.w3.org/1999/xlink" xmlns:fi="http://pattern.flaticon.com/" x="0" y="0" width="2160" height="1080" viewBox="0 0 1679.9999999999998 839.9999999999999"><rect x="0px" y="0px" width="100%" height="100%" opacity="1" fill="#ffffff"/><defs><g transform="matrix(0.20202088356018066 0 0 0.20202088356018066 101 200.99999898890917)" id="L1_6"><path d="M45.432,35.049c-0.008,0-0.017,0-0.025,0c-2.809,0-5.451,1.095-7.446,3.085c-2.017,2.012-3.128,4.691-3.128,7.543     v159.365c0,5.844,4.773,10.61,10.641,10.625c24.738,0.059,66.184,5.215,94.776,35.136V84.023c0-1.981-0.506-3.842-1.461-5.382     C115.322,40.849,70.226,35.107,45.432,35.049z"/><path d="M262.167,205.042V45.676c0-2.852-1.111-5.531-3.128-7.543c-1.995-1.99-4.639-3.085-7.445-3.085c-0.009,0-0.018,0-0.026,0     c-24.793,0.059-69.889,5.801-93.357,43.593c-0.955,1.54-1.46,3.401-1.46,5.382v166.779     c28.592-29.921,70.038-35.077,94.776-35.136C257.394,215.651,262.167,210.885,262.167,205.042z"/><path d="M286.373,71.801h-7.706v133.241c0,14.921-12.157,27.088-27.101,27.125c-20.983,0.05-55.581,4.153-80.084,27.344     c42.378-10.376,87.052-3.631,112.512,2.171c3.179,0.724,6.464-0.024,9.011-2.054c2.538-2.025,3.994-5.052,3.994-8.301V82.427     C297,76.568,292.232,71.801,286.373,71.801z"/><path d="M18.332,205.042V71.801h-7.706C4.768,71.801,0,76.568,0,82.427v168.897c0,3.25,1.456,6.276,3.994,8.301     c2.545,2.029,5.827,2.78,9.011,2.054c25.46-5.803,70.135-12.547,112.511-2.171c-24.502-23.19-59.1-27.292-80.083-27.342     C30.49,232.13,18.332,219.963,18.332,205.042z"/></g><g transform="matrix(1 0 0 1 257 149)" id="L1_8" fill="#262f38"><path d="m58.669 10.118-27.99-10c-.4419711-.15600345-.9240289-.15600345-1.366 0l-27.983 10c-.79312091.2858868-1.32179815 1.038427-1.32179815 1.8815s.52867724 1.5956132 1.32179815 1.8815l13.67 4.884v6.235c0 3.888 13.465 4 15 4s15-.112 15-4v-6.235l3-1.065v2.3c0 1.1045695.8954305 2 2 2h2c1.1045695 0 2-.8954305 2-2v-3c-.0029839-.4630681-.1146467-.9189675-.326-1.331l5-1.788c.7931209-.2858868 1.3217981-1.038427 1.3217981-1.8815s-.5286772-1.5956132-1.3217981-1.8815zm-15.669 12.682c-3.809-1.734-11.835-1.8-13-1.8s-9.191.066-13 1.8v-8.712c.6-.77 5.316-2.088 13-2.088s12.4 1.318 13 2.088zm-13 4.2c-7.4 0-12.047-1.222-12.916-2 .869-.778 5.518-2 12.916-2s12.047 1.222 12.916 2c-.869.778-5.516 2-12.916 2zm18.469-11.595-3.469 1.237v-2.642c0-3.888-13.465-4-15-4s-15 .112-15 4v2.641l-13-4.641 28.014-10 19.986 7.142v5.042c-.6323143.2247022-1.1712592.6545205-1.531 1.221zm3.531 4.595h-2v-3c0-.5522847.4477153-1 1-1s1 .4477153 1 1zm0-5.856v-4.287l6 2.143z" id="L1_7"/><path d="m57 31c-.0600315-.0001773-.1199516.0051787-.179.016-8.8726728 1.3794293-17.8419311 2.0429022-26.821 1.984-8.9790689.0589022-17.9483272-.6045707-26.821-1.984-.05914563-.0100897-.11900255-.01544-.179-.016-.7 0-3 .793-3 11s2.3 11 3 11c.06004793-.0012711.11990124-.0072899.179-.018 6.81770028-1.0799035 13.6994144-1.7072753 20.6-1.878l-1.952 4.682c-.2998992.7496857-.1175748 1.6062533.4616424 2.168815s1.4407385.7198238 2.1813576.398185l.765-.327.331.761c.3126556.7378909 1.0376093 1.2160686 1.839 1.213h.025c.8073899-.0062972 1.5312063-.4991084 1.833-1.248l1.737-4.158 1.731 4.142c.2991288.7559362 1.0260752 1.2555882 1.839 1.264h.03c.7959636.0032667 1.5169852-.4690182 1.832-1.2l.334-.767.753.323c.7438278.3283499 1.6125382.1719295 2.195116-.3952535.5825777-.5671831.7622009-1.4313941.453884-2.1837465l-1.914-4.59c6.2216086.2202879 12.4238858.8214132 18.572 1.8.0574962.0095142.1157284.0138649.174.013.7 0 3-.793 3-11s-2.3-11-3-11zm-23.8 3.97c.4152824 1.5269614.6571423 3.0958635.721 4.677-2.2674172-1.0543305-4.9267377-.8071562-6.961.647-.0511494-1.7957543-.2812886-3.5819291-.687-5.332 1.2113333.0253333 2.4536667.038 3.727.038 1.093 0 2.154-.012 3.2-.03zm-2.2 16.03c-2.7614237 0-5-2.2385763-5-5s2.2385763-5 5-5 5 2.2385763 5 5c-.0033061 2.7600532-2.2399468 4.9966939-5 5zm-28-17.5c.76621595 2.7654906 1.10347504 5.6321928 1 8.5.10347504 2.8678072-.23378405 5.7345094-1 8.5-.76621595-2.7654906-1.10347504-5.6321928-1-8.5-.10347504-2.8678072.23378405-5.7345094 1-8.5zm2.02 17.17c.547-1.586.98-4.24.98-8.67s-.433-7.084-.981-8.672c6.3545916.8776191 12.7525318 1.4060792 19.165 1.583.5997869 2.3136583.8744249 4.6995763.816 7.089 0 .145 0 .283-.006.422-1.2000273 1.9915849-1.3209621 4.4523451-.322 6.552l-.044.106c-6.5607744.16081-13.1072151.6923244-19.608 1.592zm22.387 7.33-.73-1.68c-.219556-.5044532-.80536-.7368087-1.311-.52l-1.683.744 2.345-5.622c.9627521.9755678 2.1909675 1.6467048 3.532 1.93zm9.227-2.2c-.50564-.2168087-1.091444.0155468-1.311.52l-.74 1.663-2.144-5.133c1.342076-.2834163 2.5713104-.9548878 3.535-1.931l2.34 5.6zm20.166-4.85c-6.4246827-.9887912-12.9030696-1.5898786-19.4-1.8l-.071-.172c1.2576047-2.6500536.718457-5.8041476-1.348-7.886-.0077336-2.0738531-.24722-4.1403459-.714-6.161 7.2107886-.1614607 14.4035315-.7901117 21.533-1.882.464.788 1.2 3.905 1.2 8.951s-.741 8.162-1.2 8.95z" id="Shape"/></g><g transform="matrix(0.11717651784420013 0 0 0.11717651784420013 61 60)" id="L1_9"><path d="m394.718 139.803c-2.175-3.526-6.796-4.622-10.32-2.449-3.526 2.173-4.622 6.794-2.449 10.32 12.98 21.056 20.392 45.035 21.666 69.762h-37.441c-3.484-14.714-16.763-25.717-32.491-25.717-15.732 0-29.014 11.003-32.499 25.717h-37.659v-44.1c0-4.142-3.357-7.5-7.5-7.5-10.137 0-18.383-8.247-18.383-18.383s8.246-18.383 18.383-18.383c4.143 0 7.5-3.358 7.5-7.5v-44.087c37.823 1.864 72.828 17.808 99.245 45.374 3.504 3.004 7.039 3.079 10.604.226 2.99-2.866 3.092-7.614.226-10.604-30.987-32.335-72.703-50.152-117.472-50.179-.035 0-.068-.005-.103-.005-.034 0-.066.005-.1.005-39.565.024-77.655 14.315-107.262 40.247-3.116 2.729-3.43 7.468-.7 10.583 2.729 3.117 7.468 3.43 10.583.701 25.021-21.916 56.726-34.665 89.979-36.337v37.426c-14.808 3.413-25.883 16.705-25.883 32.534s11.075 29.121 25.883 32.534v37.45h-44.267c-4.143 0-7.5 3.358-7.5 7.5v.175c0 10.137-8.25 18.383-18.392 18.383-10.137 0-18.383-8.247-18.383-18.383v-.175c0-4.142-3.357-7.5-7.5-7.5h-44.069c1.479-29.389 11.426-57.162 29.002-80.734 2.476-3.321 1.791-8.02-1.529-10.496-3.319-2.475-8.02-1.791-10.496 1.529-21.01 28.176-32.136 61.786-32.177 97.203-1.499 61.858 37.975 121.211 93.198 147.378 6.282 2.977 10.342 9.45 10.342 16.492v14.95c-15.397 0-25.891 8.248-25.891 23.03 0 14.771 10.16 23.043 25.891 23.03v34.13c0 14.848 13.321 28.1 28.1 28.1h62.34c14.78 0 28.1-13.248 28.1-28.1v-34.13c17.564.014 25.897-9.32 25.891-23.03-.007-14.294-8.993-23.03-25.891-23.03v-14.95c0-7.043 4.083-13.528 10.404-16.523 56.811-26.94 92.129-84.895 93.136-147.354-.03-30.149-8.37-59.586-24.116-85.13zm-201.883 218.957c-49.19-23.308-81.702-72.349-84.415-126.325h37.372c3.348 14.896 16.682 26.058 32.573 26.058 15.896 0 29.233-11.162 32.582-26.058h37.576v44.441c0 4.142 3.357 7.5 7.5 7.5 10.137 0 18.383 8.247 18.383 18.383s-8.246 18.383-18.383 18.383c-4.143 0-7.5 3.358-7.5 7.5v75.114h-36.77v-14.95c.001-12.806-7.425-24.6-18.918-30.046zm94.359 138.288h-62.34c-9.532 0-13.569-8.485-13.1-16.001h88.539c.017 8-2.519 16.001-13.099 16.001zm30.95-62.23h-46.36c-4.143 0-7.5 3.358-7.5 7.5 0 .017.002.033.002.05s-.002.033-.002.05c0 4.142 3.357 7.5 7.5 7.5h28.51v16.129h-88.539v-16.129h27.35c4.143 0 7.5-3.358 7.5-7.5 0-.017-.002-.033-.002-.05s.002-.033.002-.05c0-4.142-3.357-7.5-7.5-7.5h-45.2c-11.88.18-12.213-16.06 0-16.06h124.24c10.379 0 11.879 16.073-.001 16.06zm1.128-76.088c-11.529 5.463-18.979 17.27-18.979 30.078v14.95h-36.77v-68.464c14.808-3.413 25.883-16.705 25.883-32.534s-11.075-29.121-25.883-32.534v-37.791h44.267c4.123 0 7.474-3.329 7.5-7.452.064-10.071 8.315-18.265 18.392-18.265 10.072 0 18.319 8.194 18.384 18.265.026 4.123 3.377 7.452 7.5 7.452h44.061c-2.716 53.959-35.204 102.988-84.355 126.295z"/><g><path d="m256.024 46.063c-4.143 0-7.5-3.358-7.5-7.5v-31.063c0-4.142 3.357-7.5 7.5-7.5s7.5 3.358 7.5 7.5v31.063c0 4.142-3.357 7.5-7.5 7.5z"/><path d="m360.966 74.182c-3.597-2.053-4.816-6.658-2.745-10.245l15.531-26.901c2.07-3.587 6.655-4.818 10.245-2.745 3.587 2.071 4.816 6.658 2.745 10.245l-15.531 26.901c-1.388 2.405-6.187 5.061-10.245 2.745z"/><g><path d="m437.79 151.004c-2.071-3.587-.842-8.174 2.745-10.245l26.9-15.531c3.585-2.071 8.175-.843 10.245 2.745 2.071 3.587.842 8.174-2.745 10.245l-26.9 15.531c-4.261 2.499-8.857-.338-10.245-2.745z"/><path d="m34.368 383.92c-1.92-3.67-.842-8.174 2.745-10.245l26.9-15.531c3.585-2.071 8.173-.843 10.245 2.745 2.071 3.587.842 8.174-2.745 10.245l-26.9 15.531c-4.339 2.333-8.339.899-10.245-2.745z"/></g><path d="m140.836 71.437-15.531-26.901c-2.071-3.587-.842-8.174 2.745-10.245 3.585-2.072 8.174-.843 10.245 2.745l15.531 26.901c2.071 3.587.755 8.031-2.745 10.245-4.057 2.566-8.856-.339-10.245-2.745z"/><g><path d="m64.013 153.75-26.9-15.531c-3.587-2.071-4.816-6.658-2.745-10.245 2.07-3.588 6.655-4.817 10.245-2.745l26.9 15.531c3.587 2.071 5.352 7.026 2.745 10.245-3.234 3.993-6.484 4.493-10.245 2.745z"/><path d="m467.435 386.666-26.9-15.531c-3.587-2.071-4.816-6.658-2.745-10.245 2.07-3.588 6.659-4.816 10.245-2.745l26.9 15.531c3.587 2.071 4.981 6.758 2.745 10.245-2.406 3.752-5.906 5.327-10.245 2.745z"/></g><g><path d="m38.639 263.447h-31.062c-4.143 0-7.5-3.358-7.5-7.5s3.357-7.5 7.5-7.5h31.063c4.143 0 7.5 3.358 7.5 7.5s-3.358 7.5-7.501 7.5z"/><path d="m504.471 263.447h-31.063c-4.143 0-7.5-3.358-7.5-7.5s3.357-7.5 7.5-7.5h31.063c4.143 0 7.5 3.358 7.5 7.5s-3.357 7.5-7.5 7.5z"/></g></g></g><g transform="matrix(0.1171875 0 0 0.1171875 204 -29)" id="L1_10"><path d="M486.4,256h-8.533V51.2h8.533c14.138,0,25.6-11.462,25.6-25.6S500.539,0,486.4,0H25.6C11.461,0,0,11.461,0,25.6     s11.461,25.6,25.6,25.6h8.533V256H25.6C11.461,256,0,267.462,0,281.6c0,14.138,11.461,25.6,25.6,25.6h460.8     c14.138,0,25.6-11.462,25.6-25.6C512,267.462,500.539,256,486.4,256z M25.6,34.133c-4.71-0.006-8.527-3.823-8.533-8.533     c0.006-4.71,3.823-8.527,8.533-8.533h460.8c4.713,0,8.533,3.82,8.533,8.533s-3.82,8.533-8.533,8.533H25.6z M460.8,51.2V256H51.2     V51.2H460.8z M486.4,290.133H25.6c-4.713,0-8.533-3.82-8.533-8.533s3.82-8.533,8.533-8.533h460.8     c4.71,0.006,8.527,3.823,8.533,8.533C494.927,286.31,491.11,290.127,486.4,290.133z"/><path d="M145.067,195.696c4.713,0,8.533-3.821,8.533-8.533v-41.776l25.6,10.878v50.922l0.019,0.093     c0.01,1.084,0.227,2.156,0.638,3.158c0.587,0.92,1.189,1.829,1.807,2.729c0.787,0.805,1.727,1.446,2.763,1.886l42.432,18.017     c18.652,7.852,39.683,7.844,58.329-0.021l42.386-17.997c1.036-0.44,1.976-1.081,2.763-1.886c0.618-0.899,1.22-1.809,1.807-2.729     c0.412-1.003,0.628-2.075,0.638-3.158l0.018-0.093v-50.922l33.796-14.362c5.41-2.514,8.871-7.938,8.871-13.904     c0-5.966-3.461-11.39-8.871-13.904l-105.3-44.745c-3.383-1.45-7.213-1.45-10.596,0l-105.296,44.745     c-5.48,2.434-8.973,7.909-8.871,13.904v59.163C136.534,191.875,140.354,195.696,145.067,195.696z M315.733,201.541l-37.167,15.78     c-14.414,6.073-30.668,6.081-45.088,0.021l-37.213-15.801v-38.023l54.438,23.132c3.383,1.45,7.213,1.45,10.596,0l54.433-23.132     V201.541z M256,85.641L355.675,128l-34.69,14.742l-0.075,0.032L256,170.358l-64.91-27.584l-0.075-0.032L156.325,128L256,85.641z"/><path d="M494.933,460.8h-17.067v-10.971c-0.219-21.605-12.617-41.235-32.031-50.716c13.592-11.603,18.513-30.447,12.329-47.214     c-6.183-16.767-22.161-27.904-40.032-27.904s-33.849,11.137-40.032,27.904c-6.183,16.767-1.263,35.611,12.329,47.214     c-19.414,9.482-31.812,29.111-32.031,50.716V460.8h-42.667v-10.971c-0.219-21.605-12.617-41.235-32.031-50.716     c13.592-11.603,18.513-30.447,12.329-47.214c-6.183-16.767-22.161-27.904-40.032-27.904c-17.871,0-33.849,11.137-40.032,27.904     c-6.183,16.767-1.263,35.611,12.329,47.214c-19.414,9.482-31.812,29.111-32.031,50.716V460.8H153.6v-10.971     c-0.219-21.605-12.617-41.235-32.031-50.716c13.592-11.603,18.513-30.447,12.329-47.214     c-6.183-16.767-22.161-27.904-40.032-27.904c-17.871,0-33.849,11.137-40.032,27.904c-6.183,16.767-1.263,35.611,12.329,47.214     c-19.414,9.482-31.812,29.111-32.031,50.716V460.8H17.067C7.645,460.809,0.009,468.445,0,477.867v17.067     c0.009,9.422,7.645,17.057,17.067,17.067h477.867c9.422-0.009,17.057-7.645,17.067-17.067v-17.067     C511.991,468.445,504.355,460.809,494.933,460.8z M418.133,341.333c14.138,0,25.6,11.461,25.6,25.6s-11.461,25.6-25.6,25.6     c-14.132-0.015-25.585-11.468-25.6-25.6C392.533,352.795,403.995,341.333,418.133,341.333z M375.467,449.829     c1.329-22.591,20.037-40.23,42.667-40.23s41.337,17.639,42.667,40.23V460.8h-85.333V449.829z M256,341.333     c14.138,0,25.6,11.461,25.6,25.6s-11.462,25.6-25.6,25.6c-14.132-0.015-25.585-11.468-25.6-25.6     C230.4,352.795,241.862,341.333,256,341.333z M213.333,449.829c1.329-22.591,20.037-40.23,42.667-40.23     s41.337,17.639,42.667,40.23V460.8h-85.333V449.829z M93.867,341.333c14.138,0,25.6,11.461,25.6,25.6s-11.461,25.6-25.6,25.6     c-14.132-0.015-25.585-11.468-25.6-25.6C68.267,352.795,79.728,341.333,93.867,341.333z M51.2,449.829     c0.718-22.871,19.793-40.856,42.667-40.229c22.873-0.627,41.948,17.358,42.667,40.229V460.8H51.2V449.829z M17.067,494.933     v-17.067h477.867l0.012,17.067H17.067z"/></g></defs><g fi:class="KUsePattern"><pattern id="pattern_L1_6" width="350" height="350" patternUnits="userSpaceOnUse"><use xlink:href="#L1_6" x="-350" y="-350"/><use xlink:href="#L1_6" x="0" y="-350"/><use xlink:href="#L1_6" x="350" y="-350"/><use xlink:href="#L1_6" x="-350" y="0"/><use xlink:href="#L1_6" x="0" y="0"/><use xlink:href="#L1_6" x="350" y="0"/><use xlink:href="#L1_6" x="-350" y="350"/><use xlink:href="#L1_6" x="0" y="350"/><use xlink:href="#L1_6" x="350" y="350"/></pattern><rect x="0" y="0" width="100%" height="100%" fill="url(#pattern_L1_6)"/></g><g fi:class="KUsePattern"><pattern id="pattern_L1_8" width="350" height="350" patternUnits="userSpaceOnUse"><use xlink:href="#L1_8" x="-350" y="-350"/><use xlink:href="#L1_8" x="0" y="-350"/><use xlink:href="#L1_8" x="350" y="-350"/><use xlink:href="#L1_8" x="-350" y="0"/><use xlink:href="#L1_8" x="0" y="0"/><use xlink:href="#L1_8" x="350" y="0"/><use xlink:href="#L1_8" x="-350" y="350"/><use xlink:href="#L1_8" x="0" y="350"/><use xlink:href="#L1_8" x="350" y="350"/></pattern><rect x="0" y="0" width="100%" height="100%" fill="url(#pattern_L1_8)"/></g><g fi:class="KUsePattern"><pattern id="pattern_L1_9" width="350" height="350" patternUnits="userSpaceOnUse"><use xlink:href="#L1_9" x="-350" y="-350"/><use xlink:href="#L1_9" x="0" y="-350"/><use xlink:href="#L1_9" x="350" y="-350"/><use xlink:href="#L1_9" x="-350" y="0"/><use xlink:href="#L1_9" x="0" y="0"/><use xlink:href="#L1_9" x="350" y="0"/><use xlink:href="#L1_9" x="-350" y="350"/><use xlink:href="#L1_9" x="0" y="350"/><use xlink:href="#L1_9" x="350" y="350"/></pattern><rect x="0" y="0" width="100%" height="100%" fill="url(#pattern_L1_9)"/></g><g fi:class="KUsePattern"><pattern id="pattern_L1_10" width="350" height="350" patternUnits="userSpaceOnUse"><use xlink:href="#L1_10" x="-350" y="-350"/><use xlink:href="#L1_10" x="0" y="-350"/><use xlink:href="#L1_10" x="350" y="-350"/><use xlink:href="#L1_10" x="-350" y="0"/><use xlink:href="#L1_10" x="0" y="0"/><use xlink:href="#L1_10" x="350" y="0"/><use xlink:href="#L1_10" x="-350" y="350"/><use xlink:href="#L1_10" x="0" y="350"/><use xlink:href="#L1_10" x="350" y="350"/></pattern><rect x="0" y="0" width="100%" height="100%" fill="url(#pattern_L1_10)"/></g></svg>